<svg xmlns="http://www.w3.org/2000/svg" xmlns:xlink="http://www.w3.org/1999/xlink" viewBox="0 0 547.68 730.23"><defs><style>.cls-1{fill:#3f51b5;}.cls-2{fill:#2b2b2b;}.cls-3{fill:#f5a623;}.cls-4{fill:#00acc1;}</style><symbol id="logo" data-name="logo" viewBox="0 0 547.68 730.23"><path class="cls-1" d="M493.09,292.46,273.84,0,54.59,292.46A272.47,272.47,0,0,0,0,456.4c0,151,122.82,273.84,273.84,273.84S547.68,607.42,547.68,456.4A272.47,272.47,0,0,0,493.09,292.46Z"/><path class="cls-2" d="M445.79,563.27v.36l0,.33-.06.39a7,7,0,0,1-4.32,5.56L277.81,639.85a7.17,7.17,0,0,1-3.47,1.13,7.05,7.05,0,0,1-4.83-1.3L106.33,569.91a7,7,0,0,1-3.61-3.36l-.19-.38,0-.09a7,7,0,0,1-.61-2.92V351.51a7.06,7.06,0,0,1,6-7.06l163.07-69.74a7.14,7.14,0,0,1,2.4-.61h.13l.09,0a5.61,5.61,0,0,1,.71,0l.47,0,.22,0,.47.11.22.06a6.45,6.45,0,0,1,.63.16l.06,0,.44.19,163.18,69.77a7.07,7.07,0,0,1,5.85,7V563.27Zm-14.11-4.57V362.39L280.89,426.87V623.2ZM273.84,414.53l147-62.86-34.61-14.79-.42.19L239.26,399.76ZM219,393.06l149.3-63.84-42-17.94L172.44,377.11v83.1l18-9a7.06,7.06,0,0,1,9,2.4l15.29,22.95V401.08a5.76,5.76,0,0,1,0-.83A7.06,7.06,0,0,1,219,393.06Zm-57.18-26.78,146.57-62.69-34.58-14.77-147,62.85,34.61,14.8Zm104.93,256.9V426.87l-37.91-16.2V499a7.07,7.07,0,0,1-4.88,7.64l-.25.05-.41.11c-.24.06-.48.1-.72.14s-.46,0-.69,0l-.71,0a7.13,7.13,0,0,1-1.38-.25l0,0a5.25,5.25,0,0,1-.63-.22,7,7,0,0,1-3.61-3.28l-24.39-36.56-22.62,11.32a7.05,7.05,0,0,1-10.22-6.31V380.47L116,362.36V558.7Z"/><path class="cls-3" d="M431.68,362.39V558.7L280.89,623.2V426.87ZM387.23,548.67a7,7,0,1,0-5.54-12.95L340.52,553.3l-41.14,17.6a7.06,7.06,0,1,0,5.54,13l41.17-17.6Zm-41.14-10.53a7.05,7.05,0,0,0-2.95-13.61l-.08,0a7,7,0,0,0-2.54.6l-41.14,17.58a7.06,7.06,0,1,0,5.54,13Z"/><path class="cls-3" d="M420.88,351.67l-147,62.86-34.58-14.77,146.59-62.69.42-.19Z"/><path class="cls-2" d="M391,539.44a7.07,7.07,0,0,1-3.79,9.23l-41.14,17.61-41.17,17.6a7.06,7.06,0,1,1-5.54-13l41.14-17.6,41.17-17.58a7,7,0,0,1,9.33,3.72Z"/><path class="cls-4" d="M368.33,329.22,219,393.06a7.06,7.06,0,0,0-4.24,7.19,5.76,5.76,0,0,0,0,.83v75.47L199.47,453.6a7.06,7.06,0,0,0-9-2.4l-18,9v-83.1l153.92-65.83Z"/><path class="cls-2" d="M350.08,529a7.05,7.05,0,0,1-4,9.14l-41.17,17.58a7.06,7.06,0,1,1-5.54-13l41.14-17.58a7,7,0,0,1,2.54-.6l.08,0A7.06,7.06,0,0,1,350.08,529Z"/><path class="cls-3" d="M308.42,303.59,161.85,366.28l-.41.19-34.61-14.8,147-62.85Z"/><path class="cls-3" d="M266.78,426.87V623.18L116,558.7V362.36l42.33,18.11v91.15a7.05,7.05,0,0,0,10.22,6.31l22.62-11.32,24.39,36.56a7,7,0,0,0,3.61,3.28,5.25,5.25,0,0,0,.63.22l0,0a7.13,7.13,0,0,0,1.38.25l.71,0q.35,0,.69,0c.24,0,.48-.08.72-.14l.41-.11.25-.05a7.07,7.07,0,0,0,4.88-7.64V410.67Z"/></symbol></defs><title>Asset 2</title><g id="Layer_2" data-name="Layer 2"><g id="Layer_1-2" data-name="Layer 1"><use width="547.68" height="730.23" xlink:href="#logo"/></g></g></svg>